<?xml version="1.0" encoding="UTF-8" standalone="no"?>
<!DOCTYPE svg PUBLIC "-//W3C//DTD SVG 1.1//EN"
 "http://www.w3.org/Graphics/SVG/1.1/DTD/svg11.dtd">
<!-- Generated by graphviz version 2.38.0 (20140413.2041)
 -->
<!-- Title: frontends_html Pages: 1 -->
<svg width="331pt" height="188pt"
 viewBox="0.00 0.00 331.44 188.00" xmlns="http://www.w3.org/2000/svg" xmlns:xlink="http://www.w3.org/1999/xlink">
<g id="graph0" class="graph" transform="scale(1 1) rotate(0) translate(4 184)">
<title>frontends_html</title>
<polygon fill="white" stroke="none" points="-4,4 -4,-184 327.436,-184 327.436,4 -4,4"/>
<!-- error -->
<g id="node1" class="node"><title>error</title>
<ellipse fill="none" stroke="black" cx="296.147" cy="-162" rx="27.0787" ry="18"/>
<text text-anchor="middle" x="296.147" y="-157.8" font-family="Times,serif" font-size="14.00">error</text>
</g>
<!-- hair -->
<g id="node2" class="node"><title>hair</title>
<ellipse fill="none" stroke="black" cx="260.147" cy="-18" rx="27" ry="18"/>
<text text-anchor="middle" x="260.147" y="-13.8" font-family="Times,serif" font-size="14.00">hair</text>
</g>
<!-- error&#45;&gt;hair -->
<g id="edge1" class="edge"><title>error&#45;&gt;hair</title>
<path fill="none" stroke="black" d="M292.01,-143.918C287.648,-125.986 280.534,-96.9812 274.147,-72 271.993,-63.5719 269.592,-54.4055 267.395,-46.1026"/>
<polygon fill="black" stroke="black" points="270.706,-44.934 264.756,-36.1678 263.941,-46.7312 270.706,-44.934"/>
</g>
<!-- scripts -->
<g id="node3" class="node"><title>scripts</title>
<ellipse fill="none" stroke="black" cx="199.147" cy="-90" rx="33.3925" ry="18"/>
<text text-anchor="middle" x="199.147" y="-85.8" font-family="Times,serif" font-size="14.00">scripts</text>
</g>
<!-- error&#45;&gt;scripts -->
<g id="edge2" class="edge"><title>error&#45;&gt;scripts</title>
<path fill="none" stroke="black" d="M278.356,-148.161C263.918,-137.742 243.312,-122.871 226.736,-110.909"/>
<polygon fill="black" stroke="black" points="228.646,-107.972 218.489,-104.958 224.55,-113.648 228.646,-107.972"/>
</g>
<!-- foot -->
<g id="node4" class="node"><title>foot</title>
<ellipse fill="none" stroke="black" cx="121.147" cy="-90" rx="27" ry="18"/>
<text text-anchor="middle" x="121.147" y="-85.8" font-family="Times,serif" font-size="14.00">foot</text>
</g>
<!-- error&#45;&gt;foot -->
<g id="edge3" class="edge"><title>error&#45;&gt;foot</title>
<path fill="none" stroke="black" d="M274.992,-150.558C270.156,-148.298 265.009,-145.991 260.147,-144 215.272,-125.621 202.023,-126.379 157.147,-108 155.325,-107.253 153.461,-106.462 151.589,-105.646"/>
<polygon fill="black" stroke="black" points="152.856,-102.378 142.303,-101.442 149.97,-108.755 152.856,-102.378"/>
</g>
<!-- head -->
<g id="node5" class="node"><title>head</title>
<ellipse fill="none" stroke="black" cx="49.1475" cy="-90" rx="27" ry="18"/>
<text text-anchor="middle" x="49.1475" y="-85.8" font-family="Times,serif" font-size="14.00">head</text>
</g>
<!-- head&#45;&gt;hair -->
<g id="edge4" class="edge"><title>head&#45;&gt;hair</title>
<path fill="none" stroke="black" d="M70.2424,-78.4054C75.0812,-76.1532 80.2455,-73.8879 85.1475,-72 132.87,-53.6201 189.831,-37.3846 225.504,-27.873"/>
<polygon fill="black" stroke="black" points="226.641,-31.193 235.417,-25.2572 224.855,-24.4246 226.641,-31.193"/>
</g>
<!-- page_a -->
<g id="node6" class="node"><title>page_a</title>
<ellipse fill="none" stroke="black" cx="35.1475" cy="-162" rx="35.2956" ry="18"/>
<text text-anchor="middle" x="35.1475" y="-157.8" font-family="Times,serif" font-size="14.00">page_a</text>
</g>
<!-- page_a&#45;&gt;scripts -->
<g id="edge6" class="edge"><title>page_a&#45;&gt;scripts</title>
<path fill="none" stroke="black" d="M61.4969,-149.753C89.4392,-137.827 133.705,-118.933 164.466,-105.803"/>
<polygon fill="black" stroke="black" points="166.117,-108.904 173.941,-101.759 163.369,-102.466 166.117,-108.904"/>
</g>
<!-- page_a&#45;&gt;foot -->
<g id="edge7" class="edge"><title>page_a&#45;&gt;foot</title>
<path fill="none" stroke="black" d="M53.3859,-146.155C65.9619,-135.918 82.8245,-122.193 96.5818,-110.995"/>
<polygon fill="black" stroke="black" points="99.1341,-113.431 104.68,-104.404 94.7152,-108.002 99.1341,-113.431"/>
</g>
<!-- page_a&#45;&gt;head -->
<g id="edge5" class="edge"><title>page_a&#45;&gt;head</title>
<path fill="none" stroke="black" d="M38.5365,-144.055C40.0783,-136.346 41.9421,-127.027 43.6746,-118.364"/>
<polygon fill="black" stroke="black" points="47.1632,-118.768 45.6924,-108.275 40.2991,-117.395 47.1632,-118.768"/>
</g>
<!-- page_b -->
<g id="node7" class="node"><title>page_b</title>
<ellipse fill="none" stroke="black" cx="124.147" cy="-162" rx="35.7887" ry="18"/>
<text text-anchor="middle" x="124.147" y="-157.8" font-family="Times,serif" font-size="14.00">page_b</text>
</g>
<!-- page_b&#45;&gt;scripts -->
<g id="edge9" class="edge"><title>page_b&#45;&gt;scripts</title>
<path fill="none" stroke="black" d="M140.421,-145.811C150.713,-136.206 164.184,-123.633 175.628,-112.951"/>
<polygon fill="black" stroke="black" points="178.241,-115.301 183.163,-105.919 173.464,-110.183 178.241,-115.301"/>
</g>
<!-- page_b&#45;&gt;foot -->
<g id="edge10" class="edge"><title>page_b&#45;&gt;foot</title>
<path fill="none" stroke="black" d="M123.406,-143.697C123.075,-135.983 122.678,-126.712 122.309,-118.112"/>
<polygon fill="black" stroke="black" points="125.806,-117.945 121.881,-108.104 118.812,-118.245 125.806,-117.945"/>
</g>
<!-- page_b&#45;&gt;head -->
<g id="edge8" class="edge"><title>page_b&#45;&gt;head</title>
<path fill="none" stroke="black" d="M107.874,-145.811C97.3723,-136.01 83.5597,-123.118 71.9688,-112.3"/>
<polygon fill="black" stroke="black" points="74.0659,-109.47 64.3672,-105.205 69.2896,-114.587 74.0659,-109.47"/>
</g>
<!-- success -->
<g id="node8" class="node"><title>success</title>
<ellipse fill="none" stroke="black" cx="214.147" cy="-162" rx="36.7576" ry="18"/>
<text text-anchor="middle" x="214.147" y="-157.8" font-family="Times,serif" font-size="14.00">success</text>
</g>
<!-- success&#45;&gt;hair -->
<g id="edge11" class="edge"><title>success&#45;&gt;hair</title>
<path fill="none" stroke="black" d="M224.071,-144.316C229.769,-134.122 236.661,-120.653 241.147,-108 248.308,-87.8044 253.214,-64.0285 256.245,-46.1337"/>
<polygon fill="black" stroke="black" points="259.728,-46.5208 257.854,-36.0929 252.816,-45.413 259.728,-46.5208"/>
</g>
<!-- success&#45;&gt;scripts -->
<g id="edge12" class="edge"><title>success&#45;&gt;scripts</title>
<path fill="none" stroke="black" d="M210.516,-144.055C208.846,-136.261 206.824,-126.822 204.95,-118.079"/>
<polygon fill="black" stroke="black" points="208.367,-117.32 202.849,-108.275 201.522,-118.787 208.367,-117.32"/>
</g>
<!-- success&#45;&gt;foot -->
<g id="edge13" class="edge"><title>success&#45;&gt;foot</title>
<path fill="none" stroke="black" d="M194.878,-146.496C180.872,-135.954 161.777,-121.582 146.529,-110.104"/>
<polygon fill="black" stroke="black" points="148.605,-107.286 138.511,-104.069 144.395,-112.879 148.605,-107.286"/>
</g>
</g>
</svg>
