<?xml version="1.0" encoding="UTF-8" standalone="no"?>
<!DOCTYPE svg PUBLIC "-//W3C//DTD SVG 1.1//EN"
 "http://www.w3.org/Graphics/SVG/1.1/DTD/svg11.dtd">
<!-- Generated by graphviz version 2.38.0 (20140413.2041)
 -->
<!-- Title: backends Pages: 1 -->
<svg width="929pt" height="476pt"
 viewBox="0.00 0.00 929.32 476.00" xmlns="http://www.w3.org/2000/svg" xmlns:xlink="http://www.w3.org/1999/xlink">
<g id="graph0" class="graph" transform="scale(1 1) rotate(0) translate(4 472)">
<title>backends</title>
<polygon fill="white" stroke="none" points="-4,4 -4,-472 925.323,-472 925.323,4 -4,4"/>
<!-- secrets -->
<g id="node1" class="node"><title>secrets</title>
<ellipse fill="none" stroke="black" cx="34.1673" cy="-162" rx="34.3354" ry="18"/>
<text text-anchor="middle" x="34.1673" y="-157.8" font-family="Times,serif" font-size="14.00">secrets</text>
</g>
<!-- types -->
<g id="node2" class="node"><title>types</title>
<ellipse fill="none" stroke="black" cx="98.1673" cy="-18" rx="28.5497" ry="18"/>
<text text-anchor="middle" x="98.1673" y="-13.8" font-family="Times,serif" font-size="14.00">types</text>
</g>
<!-- secrets&#45;&gt;types -->
<g id="edge1" class="edge"><title>secrets&#45;&gt;types</title>
<path fill="none" stroke="black" d="M35.0488,-143.767C36.5775,-125.199 40.7551,-95.1982 52.1673,-72 57.8244,-60.5004 66.5988,-49.503 74.9737,-40.5365"/>
<polygon fill="black" stroke="black" points="77.645,-42.8111 82.1421,-33.2181 72.6442,-37.9128 77.645,-42.8111"/>
</g>
<!-- settings -->
<g id="node3" class="node"><title>settings</title>
<ellipse fill="none" stroke="black" cx="98.1673" cy="-90" rx="37.2594" ry="18"/>
<text text-anchor="middle" x="98.1673" y="-85.8" font-family="Times,serif" font-size="14.00">settings</text>
</g>
<!-- secrets&#45;&gt;settings -->
<g id="edge2" class="edge"><title>secrets&#45;&gt;settings</title>
<path fill="none" stroke="black" d="M43.4945,-144.411C51.1431,-134.911 61.9904,-122.882 72.0843,-112.646"/>
<polygon fill="black" stroke="black" points="74.5912,-115.089 79.2445,-105.57 69.6711,-110.109 74.5912,-115.089"/>
</g>
<!-- settings&#45;&gt;secrets -->
<g id="edge4" class="edge"><title>settings&#45;&gt;secrets</title>
<path fill="none" stroke="black" d="M88.8267,-107.606C81.0862,-117.218 70.0754,-129.415 59.8845,-139.725"/>
<polygon fill="black" stroke="black" points="57.3351,-137.323 52.6673,-146.834 62.2475,-142.31 57.3351,-137.323"/>
</g>
<!-- settings&#45;&gt;types -->
<g id="edge3" class="edge"><title>settings&#45;&gt;types</title>
<path fill="none" stroke="black" d="M98.1673,-71.6966C98.1673,-63.9827 98.1673,-54.7125 98.1673,-46.1124"/>
<polygon fill="black" stroke="black" points="101.667,-46.1043 98.1673,-36.1043 94.6674,-46.1044 101.667,-46.1043"/>
</g>
<!-- services -->
<g id="node4" class="node"><title>services</title>
<ellipse fill="none" stroke="black" cx="206.167" cy="-234" rx="38.6782" ry="18"/>
<text text-anchor="middle" x="206.167" y="-229.8" font-family="Times,serif" font-size="14.00">services</text>
</g>
<!-- service_a -->
<g id="node5" class="node"><title>service_a</title>
<ellipse fill="none" stroke="black" cx="92.1673" cy="-306" rx="43.4887" ry="18"/>
<text text-anchor="middle" x="92.1673" y="-301.8" font-family="Times,serif" font-size="14.00">service_a</text>
</g>
<!-- services&#45;&gt;service_a -->
<g id="edge5" class="edge"><title>services&#45;&gt;service_a</title>
<path fill="none" stroke="black" d="M187.689,-249.804C171.468,-260.596 147.674,-275.283 127.823,-286.794"/>
<polygon fill="black" stroke="black" points="125.96,-283.827 119.021,-291.834 129.439,-289.902 125.96,-283.827"/>
</g>
<!-- service_b -->
<g id="node6" class="node"><title>service_b</title>
<ellipse fill="none" stroke="black" cx="206.167" cy="-162" rx="43.9819" ry="18"/>
<text text-anchor="middle" x="206.167" y="-157.8" font-family="Times,serif" font-size="14.00">service_b</text>
</g>
<!-- services&#45;&gt;service_b -->
<g id="edge6" class="edge"><title>services&#45;&gt;service_b</title>
<path fill="none" stroke="black" d="M200.289,-216.055C199.471,-208.346 199.229,-199.027 199.562,-190.364"/>
<polygon fill="black" stroke="black" points="203.062,-190.491 200.254,-180.275 196.078,-190.012 203.062,-190.491"/>
</g>
<!-- service_a&#45;&gt;settings -->
<g id="edge8" class="edge"><title>service_a&#45;&gt;settings</title>
<path fill="none" stroke="black" d="M92.6481,-287.849C93.686,-250.832 96.1435,-163.181 97.3994,-118.386"/>
<polygon fill="black" stroke="black" points="100.902,-118.327 97.6841,-108.232 93.9051,-118.13 100.902,-118.327"/>
</g>
<!-- service_a&#45;&gt;services -->
<g id="edge9" class="edge"><title>service_a&#45;&gt;services</title>
<path fill="none" stroke="black" d="M111.225,-289.811C127.723,-278.862 151.747,-264.056 171.571,-252.593"/>
<polygon fill="black" stroke="black" points="173.392,-255.583 180.342,-247.587 169.922,-249.504 173.392,-255.583"/>
</g>
<!-- libs -->
<g id="node7" class="node"><title>libs</title>
<ellipse fill="none" stroke="black" cx="206.167" cy="-90" rx="27" ry="18"/>
<text text-anchor="middle" x="206.167" y="-85.8" font-family="Times,serif" font-size="14.00">libs</text>
</g>
<!-- service_a&#45;&gt;libs -->
<g id="edge7" class="edge"><title>service_a&#45;&gt;libs</title>
<path fill="none" stroke="black" d="M97.5799,-288.053C109.258,-251.991 137.064,-168.915 153.167,-144 160.97,-131.927 171.908,-120.405 181.822,-111.205"/>
<polygon fill="black" stroke="black" points="184.355,-113.636 189.474,-104.36 179.688,-108.419 184.355,-113.636"/>
</g>
<!-- service_b&#45;&gt;settings -->
<g id="edge11" class="edge"><title>service_b&#45;&gt;settings</title>
<path fill="none" stroke="black" d="M183.79,-146.496C167.69,-136.061 145.8,-121.873 128.183,-110.455"/>
<polygon fill="black" stroke="black" points="129.709,-107.273 119.414,-104.771 125.902,-113.147 129.709,-107.273"/>
</g>
<!-- service_b&#45;&gt;services -->
<g id="edge12" class="edge"><title>service_b&#45;&gt;services</title>
<path fill="none" stroke="black" d="M212.08,-180.275C212.882,-188.03 213.108,-197.362 212.758,-206.005"/>
<polygon fill="black" stroke="black" points="209.261,-205.832 212.045,-216.055 216.244,-206.327 209.261,-205.832"/>
</g>
<!-- service_b&#45;&gt;libs -->
<g id="edge10" class="edge"><title>service_b&#45;&gt;libs</title>
<path fill="none" stroke="black" d="M206.167,-143.697C206.167,-135.983 206.167,-126.712 206.167,-118.112"/>
<polygon fill="black" stroke="black" points="209.667,-118.104 206.167,-108.104 202.667,-118.104 209.667,-118.104"/>
</g>
<!-- controller_a -->
<g id="node8" class="node"><title>controller_a</title>
<ellipse fill="none" stroke="black" cx="206.167" cy="-306" rx="52.6607" ry="18"/>
<text text-anchor="middle" x="206.167" y="-301.8" font-family="Times,serif" font-size="14.00">controller_a</text>
</g>
<!-- controller_a&#45;&gt;services -->
<g id="edge13" class="edge"><title>controller_a&#45;&gt;services</title>
<path fill="none" stroke="black" d="M206.167,-287.697C206.167,-279.983 206.167,-270.712 206.167,-262.112"/>
<polygon fill="black" stroke="black" points="209.667,-262.104 206.167,-252.104 202.667,-262.104 209.667,-262.104"/>
</g>
<!-- controller_b -->
<g id="node9" class="node"><title>controller_b</title>
<ellipse fill="none" stroke="black" cx="330.167" cy="-306" rx="53.1539" ry="18"/>
<text text-anchor="middle" x="330.167" y="-301.8" font-family="Times,serif" font-size="14.00">controller_b</text>
</g>
<!-- controller_b&#45;&gt;services -->
<g id="edge14" class="edge"><title>controller_b&#45;&gt;services</title>
<path fill="none" stroke="black" d="M303.87,-290.155C284.882,-279.436 259.116,-264.891 238.812,-253.428"/>
<polygon fill="black" stroke="black" points="240.34,-250.272 229.911,-248.404 236.898,-256.367 240.34,-250.272"/>
</g>
<!-- apiRouter -->
<g id="node10" class="node"><title>apiRouter</title>
<ellipse fill="none" stroke="black" cx="185.167" cy="-378" rx="44.9596" ry="18"/>
<text text-anchor="middle" x="185.167" y="-373.8" font-family="Times,serif" font-size="14.00">apiRouter</text>
</g>
<!-- apiRouter&#45;&gt;controller_a -->
<g id="edge15" class="edge"><title>apiRouter&#45;&gt;controller_a</title>
<path fill="none" stroke="black" d="M190.251,-360.055C192.589,-352.261 195.421,-342.822 198.044,-334.079"/>
<polygon fill="black" stroke="black" points="201.464,-334.859 200.985,-324.275 194.759,-332.848 201.464,-334.859"/>
</g>
<!-- apiRouter&#45;&gt;controller_b -->
<g id="edge16" class="edge"><title>apiRouter&#45;&gt;controller_b</title>
<path fill="none" stroke="black" d="M212.782,-363.669C235.15,-352.87 266.916,-337.535 291.763,-325.54"/>
<polygon fill="black" stroke="black" points="293.43,-328.622 300.914,-321.122 290.386,-322.318 293.43,-328.622"/>
</g>
<!-- api -->
<g id="node11" class="node"><title>api</title>
<ellipse fill="none" stroke="black" cx="71.1673" cy="-450" rx="27" ry="18"/>
<text text-anchor="middle" x="71.1673" y="-445.8" font-family="Times,serif" font-size="14.00">api</text>
</g>
<!-- api&#45;&gt;apiRouter -->
<g id="edge17" class="edge"><title>api&#45;&gt;apiRouter</title>
<path fill="none" stroke="black" d="M90.5058,-437.125C107.549,-426.66 132.724,-411.202 152.828,-398.857"/>
<polygon fill="black" stroke="black" points="154.687,-401.823 161.378,-393.608 151.024,-395.858 154.687,-401.823"/>
</g>
<!-- apiDevelopment -->
<g id="node12" class="node"><title>apiDevelopment</title>
<ellipse fill="none" stroke="black" cx="185.167" cy="-450" rx="68.6046" ry="18"/>
<text text-anchor="middle" x="185.167" y="-445.8" font-family="Times,serif" font-size="14.00">apiDevelopment</text>
</g>
<!-- apiDevelopment&#45;&gt;apiRouter -->
<g id="edge18" class="edge"><title>apiDevelopment&#45;&gt;apiRouter</title>
<path fill="none" stroke="black" d="M185.167,-431.697C185.167,-423.983 185.167,-414.712 185.167,-406.112"/>
<polygon fill="black" stroke="black" points="188.667,-406.104 185.167,-396.104 181.667,-406.104 188.667,-406.104"/>
</g>
<!-- apiTest -->
<g id="node13" class="node"><title>apiTest</title>
<ellipse fill="none" stroke="black" cx="307.167" cy="-450" rx="35.5377" ry="18"/>
<text text-anchor="middle" x="307.167" y="-445.8" font-family="Times,serif" font-size="14.00">apiTest</text>
</g>
<!-- apiTest&#45;&gt;apiRouter -->
<g id="edge19" class="edge"><title>apiTest&#45;&gt;apiRouter</title>
<path fill="none" stroke="black" d="M284.506,-435.998C266.018,-425.39 239.628,-410.248 218.695,-398.237"/>
<polygon fill="black" stroke="black" points="220.219,-395.076 209.803,-393.135 216.735,-401.148 220.219,-395.076"/>
</g>
<!-- imageUploaderRouter -->
<g id="node14" class="node"><title>imageUploaderRouter</title>
<ellipse fill="none" stroke="black" cx="490.167" cy="-306" rx="88.8756" ry="18"/>
<text text-anchor="middle" x="490.167" y="-301.8" font-family="Times,serif" font-size="14.00">imageUploaderRouter</text>
</g>
<!-- imageUploaderRouter&#45;&gt;services -->
<g id="edge20" class="edge"><title>imageUploaderRouter&#45;&gt;services</title>
<path fill="none" stroke="black" d="M436.081,-291.669C381.877,-278.309 299.499,-258.004 249.467,-245.673"/>
<polygon fill="black" stroke="black" points="250.154,-242.237 239.607,-243.242 248.479,-249.034 250.154,-242.237"/>
</g>
<!-- imageUploader -->
<g id="node15" class="node"><title>imageUploader</title>
<ellipse fill="none" stroke="black" cx="313.167" cy="-378" rx="64.7372" ry="18"/>
<text text-anchor="middle" x="313.167" y="-373.8" font-family="Times,serif" font-size="14.00">imageUploader</text>
</g>
<!-- imageUploader&#45;&gt;imageUploaderRouter -->
<g id="edge21" class="edge"><title>imageUploader&#45;&gt;imageUploaderRouter</title>
<path fill="none" stroke="black" d="M348.986,-362.834C375.759,-352.246 412.645,-337.658 442.001,-326.049"/>
<polygon fill="black" stroke="black" points="443.63,-329.169 451.642,-322.236 441.055,-322.659 443.63,-329.169"/>
</g>
<!-- imageUploaderDevelop -->
<g id="node16" class="node"><title>imageUploaderDevelop</title>
<ellipse fill="none" stroke="black" cx="490.167" cy="-378" rx="94.655" ry="18"/>
<text text-anchor="middle" x="490.167" y="-373.8" font-family="Times,serif" font-size="14.00">imageUploaderDevelop</text>
</g>
<!-- imageUploaderDevelop&#45;&gt;imageUploaderRouter -->
<g id="edge22" class="edge"><title>imageUploaderDevelop&#45;&gt;imageUploaderRouter</title>
<path fill="none" stroke="black" d="M490.167,-359.697C490.167,-351.983 490.167,-342.712 490.167,-334.112"/>
<polygon fill="black" stroke="black" points="493.667,-334.104 490.167,-324.104 486.667,-334.104 493.667,-334.104"/>
</g>
<!-- imageUploaderTest -->
<g id="node17" class="node"><title>imageUploaderTest</title>
<ellipse fill="none" stroke="black" cx="682.167" cy="-378" rx="79.4539" ry="18"/>
<text text-anchor="middle" x="682.167" y="-373.8" font-family="Times,serif" font-size="14.00">imageUploaderTest</text>
</g>
<!-- imageUploaderTest&#45;&gt;imageUploaderRouter -->
<g id="edge23" class="edge"><title>imageUploaderTest&#45;&gt;imageUploaderRouter</title>
<path fill="none" stroke="black" d="M641.918,-362.326C612.52,-351.608 572.449,-336.998 540.865,-325.484"/>
<polygon fill="black" stroke="black" points="541.951,-322.154 531.357,-322.017 539.553,-328.731 541.951,-322.154"/>
</g>
<!-- integration -->
<g id="node18" class="node"><title>integration</title>
<ellipse fill="none" stroke="black" cx="713.167" cy="-306" rx="48.3341" ry="18"/>
<text text-anchor="middle" x="713.167" y="-301.8" font-family="Times,serif" font-size="14.00">integration</text>
</g>
<!-- integration&#45;&gt;services -->
<g id="edge24" class="edge"><title>integration&#45;&gt;services</title>
<path fill="none" stroke="black" d="M668.619,-298.849C573.264,-285.684 350.18,-254.883 252.905,-241.453"/>
<polygon fill="black" stroke="black" points="253.17,-237.956 242.785,-240.056 252.212,-244.891 253.17,-237.956"/>
</g>
<!-- seeds -->
<g id="node19" class="node"><title>seeds</title>
<ellipse fill="none" stroke="black" cx="449.167" cy="-90" rx="29.0257" ry="18"/>
<text text-anchor="middle" x="449.167" y="-85.8" font-family="Times,serif" font-size="14.00">seeds</text>
</g>
<!-- integration&#45;&gt;seeds -->
<g id="edge25" class="edge"><title>integration&#45;&gt;seeds</title>
<path fill="none" stroke="black" d="M693.755,-289.264C646.621,-251.057 526.181,-153.428 473.951,-111.09"/>
<polygon fill="black" stroke="black" points="476.148,-108.365 466.176,-104.787 471.74,-113.803 476.148,-108.365"/>
</g>
<!-- test -->
<g id="node20" class="node"><title>test</title>
<ellipse fill="none" stroke="black" cx="806.167" cy="-378" rx="27" ry="18"/>
<text text-anchor="middle" x="806.167" y="-373.8" font-family="Times,serif" font-size="14.00">test</text>
</g>
<!-- test&#45;&gt;integration -->
<g id="edge26" class="edge"><title>test&#45;&gt;integration</title>
<path fill="none" stroke="black" d="M788.675,-363.834C775.534,-353.942 757.246,-340.178 741.96,-328.672"/>
<polygon fill="black" stroke="black" points="743.923,-325.769 733.829,-322.552 739.714,-331.362 743.923,-325.769"/>
</g>
<!-- baseline -->
<g id="node22" class="node"><title>baseline</title>
<ellipse fill="none" stroke="black" cx="846.167" cy="-306" rx="39.1627" ry="18"/>
<text text-anchor="middle" x="846.167" y="-301.8" font-family="Times,serif" font-size="14.00">baseline</text>
</g>
<!-- test&#45;&gt;baseline -->
<g id="edge28" class="edge"><title>test&#45;&gt;baseline</title>
<path fill="none" stroke="black" d="M815.445,-360.765C820.222,-352.404 826.158,-342.016 831.535,-332.606"/>
<polygon fill="black" stroke="black" points="834.74,-334.052 836.662,-323.633 828.662,-330.579 834.74,-334.052"/>
</g>
<!-- rebuild -->
<g id="node21" class="node"><title>rebuild</title>
<ellipse fill="none" stroke="black" cx="886.167" cy="-378" rx="35.3129" ry="18"/>
<text text-anchor="middle" x="886.167" y="-373.8" font-family="Times,serif" font-size="14.00">rebuild</text>
</g>
<!-- rebuild&#45;&gt;integration -->
<g id="edge27" class="edge"><title>rebuild&#45;&gt;integration</title>
<path fill="none" stroke="black" d="M859.515,-366.216C831.393,-354.837 786.716,-336.76 754.116,-323.569"/>
<polygon fill="black" stroke="black" points="755.426,-320.323 744.843,-319.817 752.8,-326.812 755.426,-320.323"/>
</g>
<!-- rebuild&#45;&gt;baseline -->
<g id="edge29" class="edge"><title>rebuild&#45;&gt;baseline</title>
<path fill="none" stroke="black" d="M876.688,-360.411C871.975,-352.163 866.172,-342.009 860.897,-332.777"/>
<polygon fill="black" stroke="black" points="863.857,-330.902 855.857,-323.956 857.779,-334.375 863.857,-330.902"/>
</g>
<!-- buildSeeds -->
<g id="node23" class="node"><title>buildSeeds</title>
<ellipse fill="none" stroke="black" cx="317.167" cy="-162" rx="48.8359" ry="18"/>
<text text-anchor="middle" x="317.167" y="-157.8" font-family="Times,serif" font-size="14.00">buildSeeds</text>
</g>
<!-- buildSeeds&#45;&gt;types -->
<g id="edge32" class="edge"><title>buildSeeds&#45;&gt;types</title>
<path fill="none" stroke="black" d="M306.983,-144.294C294.136,-124.499 270.291,-91.7236 242.167,-72 209.443,-49.0498 165.613,-34.7958 134.937,-26.9279"/>
<polygon fill="black" stroke="black" points="135.619,-23.4915 125.072,-24.5011 133.947,-30.2888 135.619,-23.4915"/>
</g>
<!-- buildSeeds&#45;&gt;libs -->
<g id="edge31" class="edge"><title>buildSeeds&#45;&gt;libs</title>
<path fill="none" stroke="black" d="M293.627,-146.155C276.126,-135.118 252.194,-120.026 233.788,-108.419"/>
<polygon fill="black" stroke="black" points="235.574,-105.407 225.249,-103.033 231.84,-111.328 235.574,-105.407"/>
</g>
<!-- buildSeeds&#45;&gt;seeds -->
<g id="edge30" class="edge"><title>buildSeeds&#45;&gt;seeds</title>
<path fill="none" stroke="black" d="M343.879,-146.834C365.597,-135.318 396.237,-119.069 418.867,-107.068"/>
<polygon fill="black" stroke="black" points="420.526,-110.15 427.721,-102.373 417.246,-103.966 420.526,-110.15"/>
</g>
</g>
</svg>
