<?xml version="1.0" encoding="UTF-8" standalone="no"?>
<!DOCTYPE svg PUBLIC "-//W3C//DTD SVG 1.1//EN"
 "http://www.w3.org/Graphics/SVG/1.1/DTD/svg11.dtd">
<!-- Generated by graphviz version 2.38.0 (20140413.2041)
 -->
<!-- Title: frontends_js Pages: 1 -->
<svg width="282pt" height="188pt"
 viewBox="0.00 0.00 281.93 188.00" xmlns="http://www.w3.org/2000/svg" xmlns:xlink="http://www.w3.org/1999/xlink">
<g id="graph0" class="graph" transform="scale(1 1) rotate(0) translate(4 184)">
<title>frontends_js</title>
<polygon fill="white" stroke="none" points="-4,4 -4,-184 277.933,-184 277.933,4 -4,4"/>
<!-- base -->
<g id="node1" class="node"><title>base</title>
<ellipse fill="none" stroke="black" cx="194.289" cy="-90" rx="27" ry="18"/>
<text text-anchor="middle" x="194.289" y="-85.8" font-family="Times,serif" font-size="14.00">base</text>
</g>
<!-- types -->
<g id="node2" class="node"><title>types</title>
<ellipse fill="none" stroke="black" cx="195.289" cy="-18" rx="28.5497" ry="18"/>
<text text-anchor="middle" x="195.289" y="-13.8" font-family="Times,serif" font-size="14.00">types</text>
</g>
<!-- base&#45;&gt;types -->
<g id="edge1" class="edge"><title>base&#45;&gt;types</title>
<path fill="none" stroke="black" d="M194.536,-71.6966C194.646,-63.9827 194.778,-54.7125 194.901,-46.1124"/>
<polygon fill="black" stroke="black" points="198.401,-46.1533 195.044,-36.1043 191.402,-46.0533 198.401,-46.1533"/>
</g>
<!-- common -->
<g id="node3" class="node"><title>common</title>
<ellipse fill="none" stroke="black" cx="107.289" cy="-18" rx="41.1093" ry="18"/>
<text text-anchor="middle" x="107.289" y="-13.8" font-family="Times,serif" font-size="14.00">common</text>
</g>
<!-- base&#45;&gt;common -->
<g id="edge2" class="edge"><title>base&#45;&gt;common</title>
<path fill="none" stroke="black" d="M177.514,-75.5033C165.214,-65.6065 148.259,-51.9644 134.09,-40.5644"/>
<polygon fill="black" stroke="black" points="136.111,-37.6985 126.126,-34.1566 131.723,-43.1523 136.111,-37.6985"/>
</g>
<!-- error -->
<g id="node4" class="node"><title>error</title>
<ellipse fill="none" stroke="black" cx="27.2885" cy="-90" rx="27.0787" ry="18"/>
<text text-anchor="middle" x="27.2885" y="-85.8" font-family="Times,serif" font-size="14.00">error</text>
</g>
<!-- error&#45;&gt;common -->
<g id="edge3" class="edge"><title>error&#45;&gt;common</title>
<path fill="none" stroke="black" d="M43.094,-75.1703C54.1806,-65.4695 69.2392,-52.2932 81.9853,-41.1403"/>
<polygon fill="black" stroke="black" points="84.3455,-43.7259 89.5665,-34.5068 79.7359,-38.4578 84.3455,-43.7259"/>
</g>
<!-- page_a -->
<g id="node5" class="node"><title>page_a</title>
<ellipse fill="none" stroke="black" cx="149.289" cy="-162" rx="35.2956" ry="18"/>
<text text-anchor="middle" x="149.289" y="-157.8" font-family="Times,serif" font-size="14.00">page_a</text>
</g>
<!-- page_a&#45;&gt;base -->
<g id="edge4" class="edge"><title>page_a&#45;&gt;base</title>
<path fill="none" stroke="black" d="M159.726,-144.765C165.292,-136.106 172.256,-125.273 178.472,-115.604"/>
<polygon fill="black" stroke="black" points="181.445,-117.452 183.908,-107.147 175.556,-113.666 181.445,-117.452"/>
</g>
<!-- page_b -->
<g id="node6" class="node"><title>page_b</title>
<ellipse fill="none" stroke="black" cx="238.289" cy="-162" rx="35.7887" ry="18"/>
<text text-anchor="middle" x="238.289" y="-157.8" font-family="Times,serif" font-size="14.00">page_b</text>
</g>
<!-- page_b&#45;&gt;base -->
<g id="edge5" class="edge"><title>page_b&#45;&gt;base</title>
<path fill="none" stroke="black" d="M227.861,-144.411C222.469,-135.832 215.78,-125.191 209.795,-115.67"/>
<polygon fill="black" stroke="black" points="212.623,-113.592 204.338,-106.988 206.697,-117.317 212.623,-113.592"/>
</g>
<!-- success -->
<g id="node7" class="node"><title>success</title>
<ellipse fill="none" stroke="black" cx="109.289" cy="-90" rx="36.7576" ry="18"/>
<text text-anchor="middle" x="109.289" y="-85.8" font-family="Times,serif" font-size="14.00">success</text>
</g>
<!-- success&#45;&gt;common -->
<g id="edge6" class="edge"><title>success&#45;&gt;common</title>
<path fill="none" stroke="black" d="M108.794,-71.6966C108.574,-63.9827 108.309,-54.7125 108.063,-46.1124"/>
<polygon fill="black" stroke="black" points="111.561,-46.0003 107.777,-36.1043 104.564,-46.2002 111.561,-46.0003"/>
</g>
</g>
</svg>
