<?xml version="1.0" encoding="UTF-8" standalone="no"?>
<!DOCTYPE svg PUBLIC "-//W3C//DTD SVG 1.1//EN"
 "http://www.w3.org/Graphics/SVG/1.1/DTD/svg11.dtd">
<!-- Generated by graphviz version 2.38.0 (20140413.2041)
 -->
<!-- Title: frontends_js Pages: 1 -->
<svg width="280pt" height="260pt"
 viewBox="0.00 0.00 279.93 260.00" xmlns="http://www.w3.org/2000/svg" xmlns:xlink="http://www.w3.org/1999/xlink">
<g id="graph0" class="graph" transform="scale(1 1) rotate(0) translate(4 256)">
<title>frontends_js</title>
<polygon fill="white" stroke="none" points="-4,4 -4,-256 275.933,-256 275.933,4 -4,4"/>
<!-- common -->
<g id="node1" class="node"><title>common</title>
<ellipse fill="none" stroke="black" cx="115.289" cy="-90" rx="41.1093" ry="18"/>
<text text-anchor="middle" x="115.289" y="-85.8" font-family="Times,serif" font-size="14.00">common</text>
</g>
<!-- types -->
<g id="node2" class="node"><title>types</title>
<ellipse fill="none" stroke="black" cx="151.289" cy="-18" rx="28.5497" ry="18"/>
<text text-anchor="middle" x="151.289" y="-13.8" font-family="Times,serif" font-size="14.00">types</text>
</g>
<!-- common&#45;&gt;types -->
<g id="edge1" class="edge"><title>common&#45;&gt;types</title>
<path fill="none" stroke="black" d="M124.003,-72.055C128.266,-63.7665 133.485,-53.6178 138.213,-44.4241"/>
<polygon fill="black" stroke="black" points="141.441,-45.8006 142.902,-35.307 135.216,-42.5992 141.441,-45.8006"/>
</g>
<!-- head -->
<g id="node3" class="node"><title>head</title>
<ellipse fill="none" stroke="black" cx="191.289" cy="-162" rx="27" ry="18"/>
<text text-anchor="middle" x="191.289" y="-157.8" font-family="Times,serif" font-size="14.00">head</text>
</g>
<!-- head&#45;&gt;common -->
<g id="edge3" class="edge"><title>head&#45;&gt;common</title>
<path fill="none" stroke="black" d="M175.909,-146.834C165.519,-137.265 151.583,-124.429 139.693,-113.477"/>
<polygon fill="black" stroke="black" points="141.959,-110.806 132.232,-106.606 137.216,-115.955 141.959,-110.806"/>
</g>
<!-- head&#45;&gt;types -->
<g id="edge2" class="edge"><title>head&#45;&gt;types</title>
<path fill="none" stroke="black" d="M186.543,-144.153C179.687,-119.813 166.942,-74.5681 158.8,-45.6651"/>
<polygon fill="black" stroke="black" points="162.108,-44.5014 156.028,-35.825 155.371,-46.3994 162.108,-44.5014"/>
</g>
<!-- error -->
<g id="node4" class="node"><title>error</title>
<ellipse fill="none" stroke="black" cx="27.2885" cy="-162" rx="27.0787" ry="18"/>
<text text-anchor="middle" x="27.2885" y="-157.8" font-family="Times,serif" font-size="14.00">error</text>
</g>
<!-- error&#45;&gt;common -->
<g id="edge4" class="edge"><title>error&#45;&gt;common</title>
<path fill="none" stroke="black" d="M44.2558,-147.503C56.6976,-137.606 73.8475,-123.964 88.179,-112.564"/>
<polygon fill="black" stroke="black" points="90.5873,-115.121 96.2345,-106.157 86.2296,-109.643 90.5873,-115.121"/>
</g>
<!-- success -->
<g id="node5" class="node"><title>success</title>
<ellipse fill="none" stroke="black" cx="109.289" cy="-162" rx="36.7576" ry="18"/>
<text text-anchor="middle" x="109.289" y="-157.8" font-family="Times,serif" font-size="14.00">success</text>
</g>
<!-- success&#45;&gt;common -->
<g id="edge5" class="edge"><title>success&#45;&gt;common</title>
<path fill="none" stroke="black" d="M110.772,-143.697C111.433,-135.983 112.227,-126.712 112.965,-118.112"/>
<polygon fill="black" stroke="black" points="116.456,-118.367 113.822,-108.104 109.481,-117.769 116.456,-118.367"/>
</g>
<!-- page_a -->
<g id="node6" class="node"><title>page_a</title>
<ellipse fill="none" stroke="black" cx="147.289" cy="-234" rx="35.2956" ry="18"/>
<text text-anchor="middle" x="147.289" y="-229.8" font-family="Times,serif" font-size="14.00">page_a</text>
</g>
<!-- page_a&#45;&gt;head -->
<g id="edge6" class="edge"><title>page_a&#45;&gt;head</title>
<path fill="none" stroke="black" d="M157.494,-216.765C162.88,-208.195 169.607,-197.494 175.637,-187.9"/>
<polygon fill="black" stroke="black" points="178.78,-189.476 181.139,-179.147 172.854,-185.751 178.78,-189.476"/>
</g>
<!-- page_b -->
<g id="node7" class="node"><title>page_b</title>
<ellipse fill="none" stroke="black" cx="236.289" cy="-234" rx="35.7887" ry="18"/>
<text text-anchor="middle" x="236.289" y="-229.8" font-family="Times,serif" font-size="14.00">page_b</text>
</g>
<!-- page_b&#45;&gt;head -->
<g id="edge7" class="edge"><title>page_b&#45;&gt;head</title>
<path fill="none" stroke="black" d="M225.852,-216.765C220.286,-208.106 213.321,-197.273 207.105,-187.604"/>
<polygon fill="black" stroke="black" points="210.021,-185.666 201.669,-179.147 204.132,-189.452 210.021,-185.666"/>
</g>
</g>
</svg>
