<?xml version="1.0" encoding="UTF-8" standalone="no"?>
<!DOCTYPE svg PUBLIC "-//W3C//DTD SVG 1.1//EN"
 "http://www.w3.org/Graphics/SVG/1.1/DTD/svg11.dtd">
<!-- Generated by graphviz version 2.38.0 (20140413.2041)
 -->
<!-- Title: G Pages: 1 -->
<svg width="402pt" height="188pt"
 viewBox="0.00 0.00 402.08 188.00" xmlns="http://www.w3.org/2000/svg" xmlns:xlink="http://www.w3.org/1999/xlink">
<g id="graph0" class="graph" transform="scale(1 1) rotate(0) translate(4 184)">
<title>G</title>
<polygon fill="white" stroke="none" points="-4,4 -4,-184 398.075,-184 398.075,4 -4,4"/>
<!-- Organizations -->
<g id="node1" class="node"><title>Organizations</title>
<ellipse fill="none" stroke="black" cx="143.507" cy="-162" rx="59.6154" ry="18"/>
<text text-anchor="middle" x="143.507" y="-157.8" font-family="Times,serif" font-size="14.00">Organizations</text>
</g>
<!-- Members -->
<g id="node2" class="node"><title>Members</title>
<ellipse fill="none" stroke="black" cx="43.5073" cy="-90" rx="43.5146" ry="18"/>
<text text-anchor="middle" x="43.5073" y="-85.8" font-family="Times,serif" font-size="14.00">Members</text>
</g>
<!-- Organizations&#45;&#45;Members -->
<g id="edge1" class="edge"><title>Organizations&#45;&#45;Members</title>
<path fill="none" stroke="black" d="M120.816,-145.116C103.989,-133.337 81.2103,-117.392 64.7415,-105.864"/>
<text text-anchor="middle" x="54.2415" y="-108.664" font-family="Times,serif" font-size="14.00">1..*</text>
<text text-anchor="middle" x="117.316" y="-133.916" font-family="Times,serif" font-size="14.00">*</text>
</g>
<!-- Themes -->
<g id="node3" class="node"><title>Themes</title>
<ellipse fill="none" stroke="black" cx="143.507" cy="-90" rx="38.2024" ry="18"/>
<text text-anchor="middle" x="143.507" y="-85.8" font-family="Times,serif" font-size="14.00">Themes</text>
</g>
<!-- Organizations&#45;&#45;Themes -->
<g id="edge2" class="edge"><title>Organizations&#45;&#45;Themes</title>
<path fill="none" stroke="black" d="M143.507,-143.697C143.507,-132.846 143.507,-118.917 143.507,-108.104"/>
<text text-anchor="middle" x="140.007" y="-110.904" font-family="Times,serif" font-size="14.00">*</text>
<text text-anchor="middle" x="140.007" y="-132.497" font-family="Times,serif" font-size="14.00">1</text>
</g>
<!-- Creators -->
<g id="node4" class="node"><title>Creators</title>
<ellipse fill="none" stroke="black" cx="280.507" cy="-18" rx="40.1317" ry="18"/>
<text text-anchor="middle" x="280.507" y="-13.8" font-family="Times,serif" font-size="14.00">Creators</text>
</g>
<!-- Organizations&#45;&#45;Creators -->
<g id="edge3" class="edge"><title>Organizations&#45;&#45;Creators</title>
<path fill="none" stroke="black" d="M159.108,-144.533C176.106,-126.621 204.136,-97.1768 228.507,-72 240.701,-59.4038 254.614,-45.233 264.979,-34.7157"/>
<text text-anchor="middle" x="261.479" y="-37.5157" font-family="Times,serif" font-size="14.00">1</text>
<text text-anchor="middle" x="155.608" y="-133.333" font-family="Times,serif" font-size="14.00">*</text>
</g>
<!-- Themes&#45;&#45;Creators -->
<g id="edge6" class="edge"><title>Themes&#45;&#45;Creators</title>
<path fill="none" stroke="black" d="M168.317,-76.3235C192.838,-63.7948 230.177,-44.7161 254.953,-32.0568"/>
<text text-anchor="middle" x="251.453" y="-34.8568" font-family="Times,serif" font-size="14.00">1</text>
<text text-anchor="middle" x="164.817" y="-65.1235" font-family="Times,serif" font-size="14.00">*</text>
</g>
<!-- Owners -->
<g id="node5" class="node"><title>Owners</title>
<ellipse fill="none" stroke="black" cx="57.5073" cy="-18" rx="37.7266" ry="18"/>
<text text-anchor="middle" x="57.5073" y="-13.8" font-family="Times,serif" font-size="14.00">Owners</text>
</g>
<!-- Themes&#45;&#45;Owners -->
<g id="edge4" class="edge"><title>Themes&#45;&#45;Owners</title>
<path fill="none" stroke="black" d="M125.269,-74.1548C110.674,-62.2756 90.307,-45.6974 75.7194,-33.8238"/>
<text text-anchor="middle" x="86.2194" y="-36.6238" font-family="Times,serif" font-size="14.00">1..*</text>
<text text-anchor="middle" x="121.769" y="-62.9548" font-family="Times,serif" font-size="14.00">*</text>
</g>
<!-- Watchers -->
<g id="node6" class="node"><title>Watchers</title>
<ellipse fill="none" stroke="black" cx="155.507" cy="-18" rx="42.582" ry="18"/>
<text text-anchor="middle" x="155.507" y="-13.8" font-family="Times,serif" font-size="14.00">Watchers</text>
</g>
<!-- Themes&#45;&#45;Watchers -->
<g id="edge5" class="edge"><title>Themes&#45;&#45;Watchers</title>
<path fill="none" stroke="black" d="M146.474,-71.6966C148.334,-60.8463 150.722,-46.9167 152.575,-36.1043"/>
<text text-anchor="middle" x="142.075" y="-38.9043" font-family="Times,serif" font-size="14.00">1..*</text>
<text text-anchor="middle" x="142.974" y="-60.4966" font-family="Times,serif" font-size="14.00">*</text>
</g>
<!-- Applications -->
<g id="node7" class="node"><title>Applications</title>
<ellipse fill="none" stroke="black" cx="292.507" cy="-90" rx="55.1008" ry="18"/>
<text text-anchor="middle" x="292.507" y="-85.8" font-family="Times,serif" font-size="14.00">Applications</text>
</g>
<!-- Applications&#45;&#45;Creators -->
<g id="edge7" class="edge"><title>Applications&#45;&#45;Creators</title>
<path fill="none" stroke="black" d="M289.541,-71.6966C287.681,-60.8463 285.293,-46.9167 283.439,-36.1043"/>
<text text-anchor="middle" x="279.939" y="-38.9043" font-family="Times,serif" font-size="14.00">1</text>
<text text-anchor="middle" x="286.041" y="-60.4966" font-family="Times,serif" font-size="14.00">*</text>
</g>
<!-- AccessTokens -->
<g id="node8" class="node"><title>AccessTokens</title>
<ellipse fill="none" stroke="black" cx="333.507" cy="-162" rx="60.6363" ry="18"/>
<text text-anchor="middle" x="333.507" y="-157.8" font-family="Times,serif" font-size="14.00">AccessTokens</text>
</g>
<!-- AccessTokens&#45;&#45;Creators -->
<g id="edge8" class="edge"><title>AccessTokens&#45;&#45;Creators</title>
<path fill="none" stroke="black" d="M344.777,-144.107C355.613,-125.57 368.689,-95.3455 356.507,-72 346.61,-53.0324 326.484,-39.4679 309.428,-30.812"/>
<text text-anchor="middle" x="305.928" y="-33.612" font-family="Times,serif" font-size="14.00">1</text>
<text text-anchor="middle" x="341.277" y="-132.907" font-family="Times,serif" font-size="14.00">*</text>
</g>
<!-- AccessTokens&#45;&#45;Applications -->
<g id="edge9" class="edge"><title>AccessTokens&#45;&#45;Applications</title>
<path fill="none" stroke="black" d="M323.582,-144.055C317.136,-133.049 308.769,-118.764 302.341,-107.789"/>
<text text-anchor="middle" x="298.841" y="-110.589" font-family="Times,serif" font-size="14.00">1</text>
<text text-anchor="middle" x="320.082" y="-132.855" font-family="Times,serif" font-size="14.00">*</text>
</g>
</g>
</svg>
