<?xml version="1.0" encoding="UTF-8" standalone="no"?>
<!DOCTYPE svg PUBLIC "-//W3C//DTD SVG 1.1//EN"
 "http://www.w3.org/Graphics/SVG/1.1/DTD/svg11.dtd">
<!-- Generated by graphviz version 2.38.0 (20140413.2041)
 -->
<!-- Title: G Pages: 1 -->
<svg width="490pt" height="247pt"
 viewBox="0.00 0.00 489.98 247.00" xmlns="http://www.w3.org/2000/svg" xmlns:xlink="http://www.w3.org/1999/xlink">
<g id="graph0" class="graph" transform="scale(1 1) rotate(0) translate(4 243)">
<title>G</title>
<polygon fill="white" stroke="none" points="-4,4 -4,-243 485.983,-243 485.983,4 -4,4"/>
<!-- Browser -->
<g id="node1" class="node"><title>Browser</title>
<text text-anchor="middle" x="31.7173" y="-223.8" font-family="Times,serif" font-size="14.00">Browser</text>
</g>
<!-- b0 -->
<g id="node2" class="node"><title>b0</title>
<ellipse fill="black" stroke="black" cx="31.7173" cy="-181" rx="0" ry="0"/>
</g>
<!-- Browser&#45;&gt;b0 -->
<g id="edge1" class="edge"><title>Browser&#45;&gt;b0</title>
<path fill="none" stroke="black" d="M31.7173,-216.706C31.7173,-204.926 31.7173,-193.147 31.7173,-181.367"/>
</g>
<!-- b1 -->
<g id="node3" class="node"><title>b1</title>
<ellipse fill="black" stroke="black" cx="31.7173" cy="-144" rx="0" ry="0"/>
</g>
<!-- b0&#45;&gt;b1 -->
<g id="edge2" class="edge"><title>b0&#45;&gt;b1</title>
<path fill="none" stroke="black" d="M31.7173,-180.713C31.7173,-168.572 31.7173,-156.43 31.7173,-144.289"/>
</g>
<!-- s0 -->
<g id="node9" class="node"><title>s0</title>
<ellipse fill="black" stroke="black" cx="262.573" cy="-180" rx="0" ry="0"/>
</g>
<!-- b0&#45;&gt;s0 -->
<g id="edge19" class="edge"><title>b0&#45;&gt;s0</title>
<path fill="none" stroke="black" stroke-dasharray="5,2" d="M32.8832,-180.999C38.9054,-180.973 207.166,-180.238 251.14,-180.046"/>
<polygon fill="black" stroke="black" points="251.427,-183.544 261.412,-180.001 251.397,-176.545 251.427,-183.544"/>
<text text-anchor="middle" x="149.869" y="-182.8" font-family="Times,serif" font-size="14.00">create a captcha</text>
</g>
<!-- b2 -->
<g id="node4" class="node"><title>b2</title>
<ellipse fill="black" stroke="black" cx="31.7173" cy="-108" rx="0" ry="0"/>
</g>
<!-- b1&#45;&gt;b2 -->
<g id="edge3" class="edge"><title>b1&#45;&gt;b2</title>
<path fill="none" stroke="black" d="M31.7173,-143.721C31.7173,-131.908 31.7173,-120.094 31.7173,-108.281"/>
</g>
<!-- b3 -->
<g id="node5" class="node"><title>b3</title>
<ellipse fill="black" stroke="black" cx="31.7173" cy="-72" rx="0" ry="0"/>
</g>
<!-- b2&#45;&gt;b3 -->
<g id="edge4" class="edge"><title>b2&#45;&gt;b3</title>
<path fill="none" stroke="black" d="M31.7173,-107.721C31.7173,-95.9077 31.7173,-84.0945 31.7173,-72.2812"/>
</g>
<!-- s2 -->
<g id="node11" class="node"><title>s2</title>
<ellipse fill="black" stroke="black" cx="262.573" cy="-108" rx="0" ry="0"/>
</g>
<!-- b2&#45;&gt;s2 -->
<g id="edge21" class="edge"><title>b2&#45;&gt;s2</title>
<path fill="none" stroke="black" stroke-dasharray="5,2" d="M32.8832,-108C38.9054,-108 207.166,-108 251.14,-108"/>
<polygon fill="black" stroke="black" points="251.412,-111.5 261.412,-108 251.412,-104.5 251.412,-111.5"/>
<text text-anchor="middle" x="149.869" y="-110.8" font-family="Times,serif" font-size="14.00">send token via email</text>
</g>
<!-- b4 -->
<g id="node6" class="node"><title>b4</title>
<ellipse fill="black" stroke="black" cx="31.7173" cy="-36" rx="0" ry="0"/>
</g>
<!-- b3&#45;&gt;b4 -->
<g id="edge5" class="edge"><title>b3&#45;&gt;b4</title>
<path fill="none" stroke="black" d="M31.7173,-71.7209C31.7173,-59.9077 31.7173,-48.0945 31.7173,-36.2812"/>
</g>
<!-- b5 -->
<g id="node7" class="node"><title>b5</title>
<ellipse fill="black" stroke="black" cx="31.7173" cy="-0" rx="0" ry="0"/>
</g>
<!-- b4&#45;&gt;b5 -->
<g id="edge6" class="edge"><title>b4&#45;&gt;b5</title>
<path fill="none" stroke="black" d="M31.7173,-35.7209C31.7173,-23.9077 31.7173,-12.0945 31.7173,-0.28125"/>
</g>
<!-- Server -->
<g id="node8" class="node"><title>Server</title>
<text text-anchor="middle" x="262.573" y="-222.8" font-family="Times,serif" font-size="14.00">Server</text>
</g>
<!-- Server&#45;&gt;s0 -->
<g id="edge7" class="edge"><title>Server&#45;&gt;s0</title>
<path fill="none" stroke="black" d="M262.573,-215.706C262.573,-203.926 262.573,-192.147 262.573,-180.367"/>
</g>
<!-- s1 -->
<g id="node10" class="node"><title>s1</title>
<ellipse fill="black" stroke="black" cx="262.573" cy="-144" rx="0" ry="0"/>
</g>
<!-- s0&#45;&gt;s1 -->
<g id="edge8" class="edge"><title>s0&#45;&gt;s1</title>
<path fill="none" stroke="black" d="M262.573,-179.721C262.573,-167.908 262.573,-156.094 262.573,-144.281"/>
</g>
<!-- s1&#45;&gt;b1 -->
<g id="edge20" class="edge"><title>s1&#45;&gt;b1</title>
<path fill="none" stroke="black" stroke-dasharray="5,2" d="M261.412,-144C255.469,-144 86.4878,-144 42.897,-144"/>
<polygon fill="black" stroke="black" points="42.8832,-140.5 32.8832,-144 42.8831,-147.5 42.8832,-140.5"/>
<text text-anchor="middle" x="149.869" y="-146.8" font-family="Times,serif" font-size="14.00">return captcha image</text>
</g>
<!-- s1&#45;&gt;s2 -->
<g id="edge9" class="edge"><title>s1&#45;&gt;s2</title>
<path fill="none" stroke="black" d="M262.573,-143.721C262.573,-131.908 262.573,-120.094 262.573,-108.281"/>
</g>
<!-- s3 -->
<g id="node12" class="node"><title>s3</title>
<ellipse fill="black" stroke="black" cx="262.573" cy="-72" rx="0" ry="0"/>
</g>
<!-- s2&#45;&gt;s3 -->
<g id="edge10" class="edge"><title>s2&#45;&gt;s3</title>
<path fill="none" stroke="black" d="M262.573,-107.721C262.573,-95.9077 262.573,-84.0945 262.573,-72.2812"/>
</g>
<!-- s4 -->
<g id="node13" class="node"><title>s4</title>
<ellipse fill="black" stroke="black" cx="262.573" cy="-36" rx="0" ry="0"/>
</g>
<!-- s3&#45;&gt;s4 -->
<g id="edge11" class="edge"><title>s3&#45;&gt;s4</title>
<path fill="none" stroke="black" d="M262.573,-71.7209C262.573,-59.9077 262.573,-48.0945 262.573,-36.2812"/>
</g>
<!-- e3 -->
<g id="node19" class="node"><title>e3</title>
<ellipse fill="black" stroke="black" cx="457.266" cy="-72" rx="0" ry="0"/>
</g>
<!-- s3&#45;&gt;e3 -->
<g id="edge22" class="edge"><title>s3&#45;&gt;e3</title>
<path fill="none" stroke="black" stroke-dasharray="5,2" d="M263.712,-72C268.716,-72 406.719,-72 445.953,-72"/>
<polygon fill="black" stroke="black" points="446.131,-75.5001 456.131,-72 446.131,-68.5001 446.131,-75.5001"/>
<text text-anchor="middle" x="360.695" y="-74.8" font-family="Times,serif" font-size="14.00">send url with token</text>
</g>
<!-- s4&#45;&gt;b4 -->
<g id="edge24" class="edge"><title>s4&#45;&gt;b4</title>
<path fill="none" stroke="black" stroke-dasharray="5,2" d="M261.412,-36C255.469,-36 86.4878,-36 42.897,-36"/>
<polygon fill="black" stroke="black" points="42.8832,-32.5001 32.8832,-36 42.8831,-39.5001 42.8832,-32.5001"/>
<text text-anchor="middle" x="149.869" y="-38.8" font-family="Times,serif" font-size="14.00">open in browser to login</text>
</g>
<!-- s5 -->
<g id="node14" class="node"><title>s5</title>
<ellipse fill="black" stroke="black" cx="262.573" cy="-0" rx="0" ry="0"/>
</g>
<!-- s4&#45;&gt;s5 -->
<g id="edge12" class="edge"><title>s4&#45;&gt;s5</title>
<path fill="none" stroke="black" d="M262.573,-35.7209C262.573,-23.9077 262.573,-12.0945 262.573,-0.28125"/>
</g>
<!-- Email -->
<g id="node15" class="node"><title>Email</title>
<text text-anchor="middle" x="457.266" y="-222.8" font-family="Times,serif" font-size="14.00">Email</text>
</g>
<!-- e0 -->
<g id="node16" class="node"><title>e0</title>
<ellipse fill="black" stroke="black" cx="457.266" cy="-180" rx="0" ry="0"/>
</g>
<!-- Email&#45;&gt;e0 -->
<g id="edge13" class="edge"><title>Email&#45;&gt;e0</title>
<path fill="none" stroke="black" d="M457.266,-215.706C457.266,-203.926 457.266,-192.147 457.266,-180.367"/>
</g>
<!-- e1 -->
<g id="node17" class="node"><title>e1</title>
<ellipse fill="black" stroke="black" cx="457.266" cy="-144" rx="0" ry="0"/>
</g>
<!-- e0&#45;&gt;e1 -->
<g id="edge14" class="edge"><title>e0&#45;&gt;e1</title>
<path fill="none" stroke="black" d="M457.266,-179.721C457.266,-167.908 457.266,-156.094 457.266,-144.281"/>
</g>
<!-- e2 -->
<g id="node18" class="node"><title>e2</title>
<ellipse fill="black" stroke="black" cx="457.266" cy="-108" rx="0" ry="0"/>
</g>
<!-- e1&#45;&gt;e2 -->
<g id="edge15" class="edge"><title>e1&#45;&gt;e2</title>
<path fill="none" stroke="black" d="M457.266,-143.721C457.266,-131.908 457.266,-120.094 457.266,-108.281"/>
</g>
<!-- e2&#45;&gt;e3 -->
<g id="edge16" class="edge"><title>e2&#45;&gt;e3</title>
<path fill="none" stroke="black" d="M457.266,-107.721C457.266,-95.9077 457.266,-84.0945 457.266,-72.2812"/>
</g>
<!-- e4 -->
<g id="node20" class="node"><title>e4</title>
<ellipse fill="black" stroke="black" cx="457.266" cy="-36" rx="0" ry="0"/>
</g>
<!-- e3&#45;&gt;e4 -->
<g id="edge17" class="edge"><title>e3&#45;&gt;e4</title>
<path fill="none" stroke="black" d="M457.266,-71.7209C457.266,-59.9077 457.266,-48.0945 457.266,-36.2812"/>
</g>
<!-- e4&#45;&gt;s4 -->
<g id="edge23" class="edge"><title>e4&#45;&gt;s4</title>
<path fill="none" stroke="black" stroke-dasharray="5,2" d="M456.131,-36C450.475,-36 269.456,-36 263.712,-36"/>
</g>
<!-- e5 -->
<g id="node21" class="node"><title>e5</title>
<ellipse fill="black" stroke="black" cx="457.266" cy="-0" rx="0" ry="0"/>
</g>
<!-- e4&#45;&gt;e5 -->
<g id="edge18" class="edge"><title>e4&#45;&gt;e5</title>
<path fill="none" stroke="black" d="M457.266,-35.7209C457.266,-23.9077 457.266,-12.0945 457.266,-0.28125"/>
</g>
</g>
</svg>
